<svg xmlns="http://www.w3.org/2000/svg" xmlns:xlink="http://www.w3.org/1999/xlink" viewBox="0 0 56 38.2"><defs><style>.cls-1,.cls-4{fill:none;}.cls-2{clip-path:url(#clip-path);}.cls-3{fill:#e5dbd3;}.cls-4{stroke:#707070;}.cls-5{clip-path:url(#clip-path-2);}</style><clipPath id="clip-path"><rect class="cls-1" y="1.2" width="57" height="41"/></clipPath><clipPath id="clip-path-2"><rect class="cls-1" width="57" height="41"/></clipPath></defs><g id="圖層_2" data-name="圖層 2"><g id="圖層_1-2" data-name="圖層 1"><g class="cls-2"><g id="Repeat_Grid_1" data-name="Repeat Grid 1"><g id="Rectangle_16" data-name="Rectangle 16"><path class="cls-3" d="M3.5,1.2h49A3.54,3.54,0,0,1,56,4.7h0a3.54,3.54,0,0,1-3.5,3.5H3.5A3.54,3.54,0,0,1,0,4.7H0A3.54,3.54,0,0,1,3.5,1.2Z"/><path class="cls-4" d="M3.5,1.7h49a3,3,0,0,1,3,3h0a3,3,0,0,1-3,3H3.5a3,3,0,0,1-3-3h0A3,3,0,0,1,3.5,1.7Z"/></g><g id="Rectangle_16-2" data-name="Rectangle 16-2"><path class="cls-3" d="M3.5,16.2h49A3.54,3.54,0,0,1,56,19.7h0a3.54,3.54,0,0,1-3.5,3.5H3.5A3.54,3.54,0,0,1,0,19.7H0A3.54,3.54,0,0,1,3.5,16.2Z"/><path class="cls-4" d="M3.5,16.7h49a3,3,0,0,1,3,3h0a3,3,0,0,1-3,3H3.5a3,3,0,0,1-3-3h0A3,3,0,0,1,3.5,16.7Z"/></g><g id="Rectangle_16-3" data-name="Rectangle 16-3"><path class="cls-3" d="M3.5,31.2h49A3.54,3.54,0,0,1,56,34.7h0a3.54,3.54,0,0,1-3.5,3.5H3.5A3.54,3.54,0,0,1,0,34.7H0A3.54,3.54,0,0,1,3.5,31.2Z"/><path class="cls-4" d="M3.5,31.7h49a3,3,0,0,1,3,3h0a3,3,0,0,1-3,3H3.5a3,3,0,0,1-3-3h0A3,3,0,0,1,3.5,31.7Z"/></g></g></g><g class="cls-5"><g id="Repeat_Grid_1-2" data-name="Repeat Grid 1"><path id="Rectangle_16-2-2" data-name="Rectangle 16" class="cls-3" d="M3.5,0h49A3.54,3.54,0,0,1,56,3.5h0A3.54,3.54,0,0,1,52.5,7H3.5A3.54,3.54,0,0,1,0,3.5H0A3.54,3.54,0,0,1,3.5,0Z"/><path id="Rectangle_16-2-3" data-name="Rectangle 16-2" class="cls-3" d="M3.5,15h49A3.54,3.54,0,0,1,56,18.5h0A3.54,3.54,0,0,1,52.5,22H3.5A3.54,3.54,0,0,1,0,18.5H0A3.54,3.54,0,0,1,3.5,15Z"/><path id="Rectangle_16-3-2" data-name="Rectangle 16-3" class="cls-3" d="M3.5,30h49A3.54,3.54,0,0,1,56,33.5h0A3.54,3.54,0,0,1,52.5,37H3.5A3.54,3.54,0,0,1,0,33.5H0A3.54,3.54,0,0,1,3.5,30Z"/></g></g></g></g></svg>